<svg width="184" height="53" viewBox="0 0 184 53" fill="none" xmlns="http://www.w3.org/2000/svg">
<rect width="184" height="53" fill="#393E46"/>
<path d="M44.4086 24.6468V19.7276C44.4086 18.0596 43.1148 16.703 41.4801 16.5715L36.9118 8.5922C36.4884 7.85422 35.8048 7.32677 34.9868 7.10775C34.1727 6.89022 33.3214 7.00447 32.5927 7.42856L16.9323 16.5458H14.1818C12.427 16.5458 11 17.9728 11 19.7276V38.8182C11 40.573 12.4269 42 14.1818 42H41.2268C42.9816 42 44.4086 40.5731 44.4086 38.8182V33.899C45.3325 33.5696 45.9995 32.6949 45.9995 31.6592V26.8866C45.9995 25.8509 45.3325 24.9763 44.4086 24.6468ZM39.6315 16.5458H32.6984L37.8983 13.5185L39.6315 16.5458ZM37.1079 12.1379L29.5366 16.5458H26.3961L36.3226 10.7664L37.1079 12.1379ZM33.3936 8.80346C33.7532 8.59294 34.1735 8.53701 34.5751 8.64425C34.9814 8.75297 35.3201 9.01554 35.5306 9.38296L35.5322 9.38587L23.2345 16.5458H20.0941L33.3936 8.80346ZM42.8177 38.8182C42.8177 39.6952 42.1038 40.4091 41.2268 40.4091H14.1818C13.3048 40.4091 12.5909 39.6952 12.5909 38.8182V19.7276C12.5909 18.8506 13.3048 18.1368 14.1818 18.1368H41.2268C42.1038 18.1368 42.8177 18.8506 42.8177 19.7276V24.5003H38.045C35.4132 24.5003 33.2724 26.6411 33.2724 29.2729C33.2724 31.9047 35.4132 34.0456 38.045 34.0456H42.8177V38.8182V38.8182ZM44.4086 31.6592C44.4086 32.0981 44.0521 32.4547 43.6132 32.4547H38.045C36.2903 32.4547 34.8633 31.0278 34.8633 29.2729C34.8633 27.5181 36.2902 26.0911 38.045 26.0911H43.6132C44.052 26.0911 44.4086 26.4476 44.4086 26.8866V31.6592V31.6592Z" fill="#00ADB5"/>
<path d="M38.045 27.682C37.1681 27.682 36.4542 28.3959 36.4542 29.2729C36.4542 30.1499 37.1681 30.8638 38.045 30.8638C38.922 30.8638 39.6359 30.1499 39.6359 29.2729C39.636 28.3959 38.9221 27.682 38.045 27.682Z" fill="#00ADB5"/>
<path d="M83.816 35.768C83.7973 35.432 83.7693 35.124 83.732 34.844C83.7133 34.5453 83.6947 34.3307 83.676 34.2C83.676 34.0507 83.6667 33.9293 83.648 33.836C83.648 33.724 83.648 33.6027 83.648 33.472V31.876C83.648 31.5773 83.6573 31.0547 83.676 30.308C83.7133 29.5427 83.7227 28.8987 83.704 28.376C83.704 27.8533 83.6573 27.3587 83.564 26.892C83.452 26.2387 83.256 25.772 82.976 25.492C82.696 25.1933 82.2667 25.044 81.688 25.044C80.4 25.0627 79.112 25.8467 77.824 27.396C77.88 27.956 77.908 29.0387 77.908 30.644C77.908 31.82 77.936 33.4627 77.992 35.572C78.0107 35.9453 77.88 36.272 77.6 36.552C77.3387 36.832 77.012 36.9813 76.62 37C76.2467 37.0187 75.92 36.8973 75.64 36.636C75.36 36.356 75.2107 36.02 75.192 35.628C75.136 33.5187 75.108 31.8573 75.108 30.644V29.244C75.108 29.1507 75.0987 28.9547 75.08 28.656C75.08 28.3573 75.0707 28.1427 75.052 28.012C75.052 27.8627 75.0333 27.676 74.996 27.452C74.9773 27.2093 74.9493 27.004 74.912 26.836C74.8933 26.6493 74.856 26.472 74.8 26.304C74.6507 25.7813 74.4453 25.4173 74.184 25.212C73.904 24.988 73.484 24.904 72.924 24.96C72.308 25.016 71.776 25.184 71.328 25.464C70.8987 25.744 70.46 26.192 70.012 26.808C69.9187 26.92 69.816 27.0227 69.704 27.116C69.7787 30.8493 69.7787 33.696 69.704 35.656C69.6853 36.048 69.536 36.3747 69.256 36.636C68.976 36.8973 68.64 37.0187 68.248 37C67.856 36.9813 67.5293 36.832 67.268 36.552C67.0067 36.272 66.8853 35.936 66.904 35.544C66.9413 33.472 66.96 32.1467 66.96 31.568C66.96 30.9707 66.932 29.6173 66.876 27.508C66.8387 25.38 66.82 24.0173 66.82 23.42C66.82 23.14 66.9507 22.86 67.212 22.58C67.492 22.3 67.8187 22.16 68.192 22.16C68.5653 22.16 68.9013 22.2813 69.2 22.524C69.4987 22.748 69.6387 23.1773 69.62 23.812C70.46 22.8227 71.4867 22.272 72.7 22.16C73.988 22.048 75.0613 22.3373 75.92 23.028C76.368 23.3827 76.7693 23.8773 77.124 24.512C78.2813 23.056 79.8027 22.272 81.688 22.16C83.0693 22.1413 84.18 22.5707 85.02 23.448C85.6733 24.2133 86.112 25.1933 86.336 26.388C86.4293 26.948 86.4853 27.564 86.504 28.236C86.5227 28.8893 86.5133 29.636 86.476 30.476C86.4573 31.2973 86.448 31.764 86.448 31.876V33.416C86.448 33.5093 86.448 33.6027 86.448 33.696C86.4667 33.7893 86.476 33.9013 86.476 34.032C86.4947 34.144 86.5133 34.34 86.532 34.62C86.5507 34.9 86.5787 35.208 86.616 35.544C86.6347 35.936 86.5133 36.2813 86.252 36.58C86.0093 36.86 85.692 37.0093 85.3 37.028C84.9267 37.0653 84.5907 36.9627 84.292 36.72C84.012 36.4587 83.8533 36.1413 83.816 35.768ZM89.6442 42.628C89.2522 42.6653 88.9068 42.5533 88.6082 42.292C88.3095 42.0493 88.1415 41.732 88.1042 41.34C88.0668 40.9667 88.1695 40.6307 88.4122 40.332C88.6735 40.0333 88.9908 39.8653 89.3642 39.828C89.5508 39.8093 89.7748 39.7907 90.0362 39.772C90.2975 39.7533 90.4655 39.7347 90.5402 39.716C90.6335 39.716 90.7455 39.6973 90.8762 39.66C91.0068 39.6413 91.1095 39.604 91.1842 39.548L91.4642 39.38C91.9122 39.156 92.3135 38.5307 92.6682 37.504C92.7802 37.1867 92.8922 36.9627 93.0042 36.832C92.8735 36.6827 92.7708 36.5053 92.6962 36.3C92.3602 34.8627 91.6695 32.7347 90.6242 29.916C89.6908 27.4333 89.0002 25.4453 88.5522 23.952C88.4402 23.5787 88.4775 23.224 88.6642 22.888C88.8508 22.552 89.1308 22.328 89.5042 22.216C89.8775 22.104 90.2322 22.1413 90.5682 22.328C90.9042 22.5147 91.1282 22.7947 91.2402 23.168C91.5948 24.3627 92.2668 26.2853 93.2562 28.936L94.3202 31.848C95.6268 27.8533 96.8215 24.8573 97.9042 22.86C98.0908 22.524 98.3708 22.3 98.7442 22.188C99.1175 22.076 99.4722 22.1133 99.8082 22.3C100.144 22.4867 100.368 22.7667 100.48 23.14C100.592 23.5133 100.555 23.868 100.368 24.204C99.8828 25.1 99.3788 26.192 98.8562 27.48C98.3335 28.768 97.9228 29.8507 97.6242 30.728C97.3255 31.6053 96.9335 32.828 96.4482 34.396C96.3362 34.7693 96.2615 35.0307 96.2242 35.18C96.1308 35.4227 96.0002 35.908 95.8322 36.636C95.6268 37.3267 95.4588 37.8867 95.3282 38.316C94.8055 39.772 94.0962 40.8547 93.2002 41.564C92.9388 41.7693 92.6775 41.9373 92.4162 42.068C92.1548 42.2173 91.8748 42.32 91.5762 42.376C91.2962 42.4507 91.0722 42.4973 90.9042 42.516C90.7362 42.5533 90.4935 42.572 90.1762 42.572C89.8775 42.5907 89.7002 42.6093 89.6442 42.628ZM106.28 37C105.926 37 105.608 36.9067 105.328 36.72C105.048 36.5333 104.862 36.2907 104.768 35.992C104.488 35.0027 103.863 33.052 102.892 30.14C102.052 27.6387 101.436 25.576 101.044 23.952C100.895 23.5227 100.96 23.1307 101.24 22.776C101.539 22.4027 101.94 22.216 102.444 22.216C103.154 22.216 103.602 22.5893 103.788 23.336C104.292 25.184 104.899 27.1533 105.608 29.244C105.888 30.1213 106.075 30.8493 106.168 31.428L106.812 29.468L107.204 28.292C107.186 28.348 107.391 27.704 107.82 26.36C107.932 26.024 108.044 25.6787 108.156 25.324C108.268 24.9507 108.39 24.5773 108.52 24.204C108.838 23.3267 109.398 22.888 110.2 22.888C110.592 22.888 110.91 23 111.152 23.224C111.414 23.448 111.638 23.8213 111.824 24.344C112.702 26.808 113.542 29.4307 114.344 32.212L114.96 29.692C115.11 29.02 115.278 28.292 115.464 27.508C115.838 25.94 116.202 24.5493 116.556 23.336C116.65 22.9813 116.818 22.7013 117.06 22.496C117.303 22.2907 117.574 22.188 117.872 22.188C118.339 22.188 118.703 22.3653 118.964 22.72C119.226 23.0747 119.282 23.4947 119.132 23.98C119.114 24.0173 119.039 24.3533 118.908 24.988C118.703 25.9027 118.47 26.836 118.208 27.788L117.592 30.028C116.883 32.6787 116.37 34.4707 116.052 35.404C115.642 36.468 115.072 37 114.344 37C113.952 37 113.607 36.8787 113.308 36.636C113.01 36.3933 112.786 36.0573 112.636 35.628L112.188 34.256C111.759 32.9867 111.012 30.7373 109.948 27.508L109.472 29.188C108.614 32.1373 108.091 34.032 107.904 34.872C107.736 35.5813 107.512 36.1133 107.232 36.468C106.952 36.8227 106.635 37 106.28 37ZM129.018 36.552C128.346 36.8133 127.581 36.9627 126.722 37C125.882 37.0373 125.098 36.944 124.37 36.72C123.642 36.4773 122.998 36.1133 122.438 35.628C121.467 34.8253 120.842 33.8267 120.562 32.632C120.282 31.4373 120.273 30.364 120.534 29.412C120.795 28.46 121.187 27.536 121.71 26.64C122.251 25.7253 122.83 24.96 123.446 24.344C124.081 23.7093 124.809 23.1773 125.63 22.748C126.451 22.3187 127.31 22.1133 128.206 22.132C129.102 22.132 130.045 22.3747 131.034 22.86C131.183 22.9347 131.342 23.0467 131.51 23.196C131.697 23.3453 131.855 23.476 131.986 23.588L132.35 23.952C132.462 24.064 132.518 24.1293 132.518 24.148C132.817 24.4093 132.975 24.7453 132.994 25.156C133.237 26.276 133.395 27.452 133.47 28.684C133.545 29.916 133.563 31.0733 133.526 32.156C133.507 33.2387 133.526 34.3867 133.582 35.6C133.601 35.9733 133.479 36.3 133.218 36.58C132.957 36.86 132.63 37.0093 132.238 37.028C131.846 37.0467 131.51 36.9253 131.23 36.664C130.95 36.4027 130.801 36.0853 130.782 35.712V35.292C130.222 35.8707 129.634 36.2907 129.018 36.552ZM127.758 34.032C128.038 33.9573 128.262 33.8827 128.43 33.808C128.598 33.7333 128.803 33.6213 129.046 33.472C129.307 33.3227 129.578 33.136 129.858 32.912C130.138 32.688 130.39 32.408 130.614 32.072C130.651 32.0347 130.698 31.9973 130.754 31.96C130.754 29.44 130.595 27.4147 130.278 25.884C130.222 25.8093 130.157 25.744 130.082 25.688C130.026 25.6133 129.979 25.5573 129.942 25.52C129.923 25.4827 129.886 25.4547 129.83 25.436C129.793 25.3987 129.746 25.3613 129.69 25.324C128.794 24.8387 127.851 24.8293 126.862 25.296C125.873 25.744 125.005 26.5933 124.258 27.844C123.511 29.1133 123.138 30.224 123.138 31.176C123.157 32.1093 123.521 32.884 124.23 33.5C124.659 33.8547 125.191 34.0787 125.826 34.172C126.461 34.2653 127.105 34.2187 127.758 34.032ZM139.753 35.656C139.735 36.048 139.585 36.3747 139.305 36.636C139.025 36.8973 138.689 37.0187 138.297 37C137.905 36.9813 137.579 36.832 137.317 36.552C137.056 36.272 136.935 35.936 136.953 35.544C137.028 33.0613 137.065 31.176 137.065 29.888C137.065 28.6 137.047 26.6773 137.009 24.12C136.972 21.5627 136.953 19.64 136.953 18.352C136.953 17.96 137.084 17.6333 137.345 17.372C137.625 17.092 137.961 16.952 138.353 16.952C138.745 16.952 139.072 17.092 139.333 17.372C139.613 17.6333 139.753 17.96 139.753 18.352C139.753 19.64 139.772 21.4693 139.809 23.84C139.847 26.2107 139.856 28.3667 139.837 30.308C139.837 32.2307 139.809 34.0133 139.753 35.656ZM145.988 35.656C145.969 36.048 145.82 36.3747 145.54 36.636C145.26 36.8973 144.924 37.0187 144.532 37C144.14 36.9813 143.813 36.832 143.552 36.552C143.29 36.272 143.169 35.936 143.188 35.544C143.262 33.0613 143.3 31.176 143.3 29.888C143.3 28.6 143.281 26.6773 143.244 24.12C143.206 21.5627 143.188 19.64 143.188 18.352C143.188 17.96 143.318 17.6333 143.58 17.372C143.86 17.092 144.196 16.952 144.588 16.952C144.98 16.952 145.306 17.092 145.568 17.372C145.848 17.6333 145.988 17.96 145.988 18.352C145.988 19.64 146.006 21.4693 146.044 23.84C146.081 26.2107 146.09 28.3667 146.072 30.308C146.072 32.2307 146.044 34.0133 145.988 35.656ZM156.287 37.14C154.905 37.0467 153.701 36.7667 152.675 36.3C151.648 35.8333 150.864 35.2453 150.323 34.536C149.781 33.8267 149.389 33.1733 149.147 32.576C148.904 31.9787 148.755 31.3907 148.699 30.812C148.643 30.2147 148.671 29.4493 148.783 28.516C148.913 27.732 149.184 26.9573 149.595 26.192C150.024 25.4267 150.584 24.7453 151.275 24.148C151.984 23.532 152.833 23.0653 153.823 22.748C154.812 22.412 155.867 22.3093 156.987 22.44C158.069 22.5707 158.993 22.8693 159.759 23.336C160.524 23.784 161.177 24.3627 161.719 25.072C162.185 25.6693 162.465 26.1173 162.559 26.416C162.671 26.7147 162.764 26.9947 162.839 27.256C162.932 27.5173 163.007 27.7413 163.063 27.928C163.119 28.1147 163.165 28.3107 163.203 28.516C163.259 28.7027 163.296 28.9267 163.315 29.188C163.333 29.5427 163.268 29.8693 163.119 30.168C162.969 30.4667 162.745 30.7 162.447 30.868C162.204 30.9613 161.943 31.008 161.663 31.008L156.875 31.092C153.515 31.1107 151.835 31.148 151.835 31.204H151.751C151.993 32.156 152.497 32.9027 153.263 33.444C154.047 33.9853 155.111 34.3027 156.455 34.396C157.183 34.4333 157.789 34.396 158.275 34.284C158.816 34.1347 159.208 34.004 159.451 33.892C159.693 33.7613 159.992 33.5933 160.347 33.388C160.701 33.2573 161.056 33.276 161.411 33.444C161.765 33.612 162.008 33.8733 162.139 34.228C162.269 34.5827 162.251 34.928 162.083 35.264C161.933 35.6 161.691 35.8613 161.355 36.048C161.056 36.216 160.748 36.3653 160.431 36.496C160.113 36.608 159.647 36.748 159.031 36.916C158.415 37.084 157.5 37.1587 156.287 37.14ZM151.807 28.46C152.889 28.404 155.699 28.348 160.235 28.292C160.067 27.732 159.796 27.2 159.423 26.696C158.676 25.8373 157.752 25.3427 156.651 25.212C155.493 25.0627 154.476 25.3147 153.599 25.968C152.721 26.6027 152.124 27.4333 151.807 28.46ZM170.616 36.916C170.504 36.8787 170.271 36.8227 169.916 36.748C169.58 36.6733 169.282 36.5893 169.02 36.496C168.778 36.4027 168.488 36.272 168.152 36.104C167.835 35.9173 167.546 35.6747 167.284 35.376C167.023 35.0587 166.799 34.6853 166.612 34.256C166.407 33.752 166.276 32.7627 166.22 31.288C166.164 30.1493 166.155 28.684 166.192 26.892C166.192 26.556 166.202 25.996 166.22 25.212L165.996 25.24C165.604 25.2773 165.259 25.1747 164.96 24.932C164.662 24.6893 164.484 24.3813 164.428 24.008C164.391 23.616 164.494 23.2707 164.736 22.972C164.979 22.6733 165.287 22.496 165.66 22.44L166.304 22.384C166.323 21.3947 166.351 20.396 166.388 19.388C166.407 18.996 166.556 18.6693 166.836 18.408C167.116 18.1467 167.452 18.0253 167.844 18.044C168.236 18.0627 168.563 18.212 168.824 18.492C169.086 18.772 169.207 19.108 169.188 19.5L169.104 22.16L170.028 22.104C170.42 22.0853 170.756 22.1973 171.036 22.44C171.335 22.6827 171.494 23 171.512 23.392C171.55 23.784 171.447 24.1293 171.204 24.428C170.962 24.708 170.644 24.8667 170.252 24.904L169.02 24.96C169.002 25.856 168.992 26.5093 168.992 26.92C168.955 28.6747 168.964 30.1027 169.02 31.204C169.058 32.324 169.114 32.968 169.188 33.136C169.263 33.304 169.319 33.4253 169.356 33.5C169.394 33.556 169.459 33.6213 169.552 33.696C169.664 33.752 169.776 33.7893 169.888 33.808C170 33.8267 170.206 33.8827 170.504 33.976C170.822 34.0507 171.158 34.1533 171.512 34.284C171.867 34.396 172.128 34.6293 172.296 34.984C172.483 35.32 172.511 35.6747 172.38 36.048C172.268 36.4027 172.035 36.6733 171.68 36.86C171.344 37.028 170.99 37.0467 170.616 36.916Z" fill="#EEEEEE"/>
</svg>
