<svg width="162" height="39" viewBox="0 0 162 39" fill="none" xmlns="http://www.w3.org/2000/svg">
<path d="M33.4086 17.6468V12.7276C33.4086 11.0596 32.1148 9.70302 30.4801 9.57147L25.9118 1.5922C25.4884 0.854225 24.8048 0.326773 23.9868 0.107753C23.1727 -0.109776 22.3214 0.00446952 21.5927 0.428564L5.93226 9.54582H3.18179C1.42702 9.54582 0 10.9728 0 12.7276V31.8182C0 33.573 1.42695 35 3.18179 35H30.2268C31.9816 35 33.4086 33.5731 33.4086 31.8182V26.899C34.3325 26.5696 34.9995 25.6949 34.9995 24.6592V19.8866C34.9995 18.8509 34.3325 17.9763 33.4086 17.6468ZM28.6315 9.54582H21.6984L26.8983 6.51847L28.6315 9.54582ZM26.1079 5.1379L18.5366 9.54582H15.3961L25.3226 3.76644L26.1079 5.1379ZM22.3936 1.80346C22.7532 1.59294 23.1735 1.53701 23.5751 1.64425C23.9814 1.75297 24.3201 2.01554 24.5306 2.38296L24.5322 2.38587L12.2345 9.54582H9.09414L22.3936 1.80346ZM31.8177 31.8182C31.8177 32.6952 31.1038 33.4091 30.2268 33.4091H3.18179C2.30482 33.4091 1.59093 32.6952 1.59093 31.8182V12.7276C1.59093 11.8506 2.30482 11.1368 3.18179 11.1368H30.2268C31.1038 11.1368 31.8177 11.8506 31.8177 12.7276V17.5003H27.045C24.4132 17.5003 22.2724 19.6411 22.2724 22.2729C22.2724 24.9047 24.4132 27.0456 27.045 27.0456H31.8177V31.8182V31.8182ZM33.4086 24.6592C33.4086 25.0981 33.0521 25.4547 32.6132 25.4547H27.045C25.2903 25.4547 23.8633 24.0278 23.8633 22.2729C23.8633 20.5181 25.2902 19.0911 27.045 19.0911H32.6132C33.052 19.0911 33.4086 19.4476 33.4086 19.8866V24.6592V24.6592Z" fill="#00ADB5"/>
<path d="M27.045 20.682C26.1681 20.682 25.4542 21.3959 25.4542 22.2729C25.4542 23.1499 26.1681 23.8638 27.045 23.8638C27.922 23.8638 28.6359 23.1499 28.6359 22.2729C28.636 21.3959 27.9221 20.682 27.045 20.682Z" fill="#00ADB5"/>
<path d="M72.816 28.768C72.7973 28.432 72.7693 28.124 72.732 27.844C72.7133 27.5453 72.6947 27.3307 72.676 27.2C72.676 27.0507 72.6667 26.9293 72.648 26.836C72.648 26.724 72.648 26.6027 72.648 26.472V24.876C72.648 24.5773 72.6573 24.0547 72.676 23.308C72.7133 22.5427 72.7227 21.8987 72.704 21.376C72.704 20.8533 72.6573 20.3587 72.564 19.892C72.452 19.2387 72.256 18.772 71.976 18.492C71.696 18.1933 71.2667 18.044 70.688 18.044C69.4 18.0627 68.112 18.8467 66.824 20.396C66.88 20.956 66.908 22.0387 66.908 23.644C66.908 24.82 66.936 26.4627 66.992 28.572C67.0107 28.9453 66.88 29.272 66.6 29.552C66.3387 29.832 66.012 29.9813 65.62 30C65.2467 30.0187 64.92 29.8973 64.64 29.636C64.36 29.356 64.2107 29.02 64.192 28.628C64.136 26.5187 64.108 24.8573 64.108 23.644V22.244C64.108 22.1507 64.0987 21.9547 64.08 21.656C64.08 21.3573 64.0707 21.1427 64.052 21.012C64.052 20.8627 64.0333 20.676 63.996 20.452C63.9773 20.2093 63.9493 20.004 63.912 19.836C63.8933 19.6493 63.856 19.472 63.8 19.304C63.6507 18.7813 63.4453 18.4173 63.184 18.212C62.904 17.988 62.484 17.904 61.924 17.96C61.308 18.016 60.776 18.184 60.328 18.464C59.8987 18.744 59.46 19.192 59.012 19.808C58.9187 19.92 58.816 20.0227 58.704 20.116C58.7787 23.8493 58.7787 26.696 58.704 28.656C58.6853 29.048 58.536 29.3747 58.256 29.636C57.976 29.8973 57.64 30.0187 57.248 30C56.856 29.9813 56.5293 29.832 56.268 29.552C56.0067 29.272 55.8853 28.936 55.904 28.544C55.9413 26.472 55.96 25.1467 55.96 24.568C55.96 23.9707 55.932 22.6173 55.876 20.508C55.8387 18.38 55.82 17.0173 55.82 16.42C55.82 16.14 55.9507 15.86 56.212 15.58C56.492 15.3 56.8187 15.16 57.192 15.16C57.5653 15.16 57.9013 15.2813 58.2 15.524C58.4987 15.748 58.6387 16.1773 58.62 16.812C59.46 15.8227 60.4867 15.272 61.7 15.16C62.988 15.048 64.0613 15.3373 64.92 16.028C65.368 16.3827 65.7693 16.8773 66.124 17.512C67.2813 16.056 68.8027 15.272 70.688 15.16C72.0693 15.1413 73.18 15.5707 74.02 16.448C74.6733 17.2133 75.112 18.1933 75.336 19.388C75.4293 19.948 75.4853 20.564 75.504 21.236C75.5227 21.8893 75.5133 22.636 75.476 23.476C75.4573 24.2973 75.448 24.764 75.448 24.876V26.416C75.448 26.5093 75.448 26.6027 75.448 26.696C75.4667 26.7893 75.476 26.9013 75.476 27.032C75.4947 27.144 75.5133 27.34 75.532 27.62C75.5507 27.9 75.5787 28.208 75.616 28.544C75.6347 28.936 75.5133 29.2813 75.252 29.58C75.0093 29.86 74.692 30.0093 74.3 30.028C73.9267 30.0653 73.5907 29.9627 73.292 29.72C73.012 29.4587 72.8533 29.1413 72.816 28.768ZM78.6442 35.628C78.2522 35.6653 77.9068 35.5533 77.6082 35.292C77.3095 35.0493 77.1415 34.732 77.1042 34.34C77.0668 33.9667 77.1695 33.6307 77.4122 33.332C77.6735 33.0333 77.9908 32.8653 78.3642 32.828C78.5508 32.8093 78.7748 32.7907 79.0362 32.772C79.2975 32.7533 79.4655 32.7347 79.5402 32.716C79.6335 32.716 79.7455 32.6973 79.8762 32.66C80.0068 32.6413 80.1095 32.604 80.1842 32.548L80.4642 32.38C80.9122 32.156 81.3135 31.5307 81.6682 30.504C81.7802 30.1867 81.8922 29.9627 82.0042 29.832C81.8735 29.6827 81.7708 29.5053 81.6962 29.3C81.3602 27.8627 80.6695 25.7347 79.6242 22.916C78.6908 20.4333 78.0002 18.4453 77.5522 16.952C77.4402 16.5787 77.4775 16.224 77.6642 15.888C77.8508 15.552 78.1308 15.328 78.5042 15.216C78.8775 15.104 79.2322 15.1413 79.5682 15.328C79.9042 15.5147 80.1282 15.7947 80.2402 16.168C80.5948 17.3627 81.2668 19.2853 82.2562 21.936L83.3202 24.848C84.6268 20.8533 85.8215 17.8573 86.9042 15.86C87.0908 15.524 87.3708 15.3 87.7442 15.188C88.1175 15.076 88.4722 15.1133 88.8082 15.3C89.1442 15.4867 89.3682 15.7667 89.4802 16.14C89.5922 16.5133 89.5548 16.868 89.3682 17.204C88.8828 18.1 88.3788 19.192 87.8562 20.48C87.3335 21.768 86.9228 22.8507 86.6242 23.728C86.3255 24.6053 85.9335 25.828 85.4482 27.396C85.3362 27.7693 85.2615 28.0307 85.2242 28.18C85.1308 28.4227 85.0002 28.908 84.8322 29.636C84.6268 30.3267 84.4588 30.8867 84.3282 31.316C83.8055 32.772 83.0962 33.8547 82.2002 34.564C81.9388 34.7693 81.6775 34.9373 81.4162 35.068C81.1548 35.2173 80.8748 35.32 80.5762 35.376C80.2962 35.4507 80.0722 35.4973 79.9042 35.516C79.7362 35.5533 79.4935 35.572 79.1762 35.572C78.8775 35.5907 78.7002 35.6093 78.6442 35.628ZM95.2803 30C94.9256 30 94.6083 29.9067 94.3283 29.72C94.0483 29.5333 93.8616 29.2907 93.7683 28.992C93.4883 28.0027 92.863 26.052 91.8923 23.14C91.0523 20.6387 90.4363 18.576 90.0443 16.952C89.895 16.5227 89.9603 16.1307 90.2403 15.776C90.539 15.4027 90.9403 15.216 91.4443 15.216C92.1536 15.216 92.6016 15.5893 92.7883 16.336C93.2923 18.184 93.899 20.1533 94.6083 22.244C94.8883 23.1213 95.075 23.8493 95.1683 24.428L95.8123 22.468L96.2043 21.292C96.1856 21.348 96.391 20.704 96.8203 19.36C96.9323 19.024 97.0443 18.6787 97.1563 18.324C97.2683 17.9507 97.3896 17.5773 97.5203 17.204C97.8376 16.3267 98.3976 15.888 99.2003 15.888C99.5923 15.888 99.9096 16 100.152 16.224C100.414 16.448 100.638 16.8213 100.824 17.344C101.702 19.808 102.542 22.4307 103.344 25.212L103.96 22.692C104.11 22.02 104.278 21.292 104.464 20.508C104.838 18.94 105.202 17.5493 105.556 16.336C105.65 15.9813 105.818 15.7013 106.06 15.496C106.303 15.2907 106.574 15.188 106.872 15.188C107.339 15.188 107.703 15.3653 107.964 15.72C108.226 16.0747 108.282 16.4947 108.132 16.98C108.114 17.0173 108.039 17.3533 107.908 17.988C107.703 18.9027 107.47 19.836 107.208 20.788L106.592 23.028C105.883 25.6787 105.37 27.4707 105.052 28.404C104.642 29.468 104.072 30 103.344 30C102.952 30 102.607 29.8787 102.308 29.636C102.01 29.3933 101.786 29.0573 101.636 28.628L101.188 27.256C100.759 25.9867 100.012 23.7373 98.9483 20.508L98.4723 22.188C97.6136 25.1373 97.091 27.032 96.9043 27.872C96.7363 28.5813 96.5123 29.1133 96.2323 29.468C95.9523 29.8227 95.635 30 95.2803 30ZM118.018 29.552C117.346 29.8133 116.581 29.9627 115.722 30C114.882 30.0373 114.098 29.944 113.37 29.72C112.642 29.4773 111.998 29.1133 111.438 28.628C110.467 27.8253 109.842 26.8267 109.562 25.632C109.282 24.4373 109.273 23.364 109.534 22.412C109.795 21.46 110.187 20.536 110.71 19.64C111.251 18.7253 111.83 17.96 112.446 17.344C113.081 16.7093 113.809 16.1773 114.63 15.748C115.451 15.3187 116.31 15.1133 117.206 15.132C118.102 15.132 119.045 15.3747 120.034 15.86C120.183 15.9347 120.342 16.0467 120.51 16.196C120.697 16.3453 120.855 16.476 120.986 16.588L121.35 16.952C121.462 17.064 121.518 17.1293 121.518 17.148C121.817 17.4093 121.975 17.7453 121.994 18.156C122.237 19.276 122.395 20.452 122.47 21.684C122.545 22.916 122.563 24.0733 122.526 25.156C122.507 26.2387 122.526 27.3867 122.582 28.6C122.601 28.9733 122.479 29.3 122.218 29.58C121.957 29.86 121.63 30.0093 121.238 30.028C120.846 30.0467 120.51 29.9253 120.23 29.664C119.95 29.4027 119.801 29.0853 119.782 28.712V28.292C119.222 28.8707 118.634 29.2907 118.018 29.552ZM116.758 27.032C117.038 26.9573 117.262 26.8827 117.43 26.808C117.598 26.7333 117.803 26.6213 118.046 26.472C118.307 26.3227 118.578 26.136 118.858 25.912C119.138 25.688 119.39 25.408 119.614 25.072C119.651 25.0347 119.698 24.9973 119.754 24.96C119.754 22.44 119.595 20.4147 119.278 18.884C119.222 18.8093 119.157 18.744 119.082 18.688C119.026 18.6133 118.979 18.5573 118.942 18.52C118.923 18.4827 118.886 18.4547 118.83 18.436C118.793 18.3987 118.746 18.3613 118.69 18.324C117.794 17.8387 116.851 17.8293 115.862 18.296C114.873 18.744 114.005 19.5933 113.258 20.844C112.511 22.1133 112.138 23.224 112.138 24.176C112.157 25.1093 112.521 25.884 113.23 26.5C113.659 26.8547 114.191 27.0787 114.826 27.172C115.461 27.2653 116.105 27.2187 116.758 27.032ZM128.753 28.656C128.735 29.048 128.585 29.3747 128.305 29.636C128.025 29.8973 127.689 30.0187 127.297 30C126.905 29.9813 126.579 29.832 126.317 29.552C126.056 29.272 125.935 28.936 125.953 28.544C126.028 26.0613 126.065 24.176 126.065 22.888C126.065 21.6 126.047 19.6773 126.009 17.12C125.972 14.5627 125.953 12.64 125.953 11.352C125.953 10.96 126.084 10.6333 126.345 10.372C126.625 10.092 126.961 9.952 127.353 9.952C127.745 9.952 128.072 10.092 128.333 10.372C128.613 10.6333 128.753 10.96 128.753 11.352C128.753 12.64 128.772 14.4693 128.809 16.84C128.847 19.2107 128.856 21.3667 128.837 23.308C128.837 25.2307 128.809 27.0133 128.753 28.656ZM134.988 28.656C134.969 29.048 134.82 29.3747 134.54 29.636C134.26 29.8973 133.924 30.0187 133.532 30C133.14 29.9813 132.813 29.832 132.552 29.552C132.29 29.272 132.169 28.936 132.188 28.544C132.262 26.0613 132.3 24.176 132.3 22.888C132.3 21.6 132.281 19.6773 132.244 17.12C132.206 14.5627 132.188 12.64 132.188 11.352C132.188 10.96 132.318 10.6333 132.58 10.372C132.86 10.092 133.196 9.952 133.588 9.952C133.98 9.952 134.306 10.092 134.568 10.372C134.848 10.6333 134.988 10.96 134.988 11.352C134.988 12.64 135.006 14.4693 135.044 16.84C135.081 19.2107 135.09 21.3667 135.072 23.308C135.072 25.2307 135.044 27.0133 134.988 28.656ZM145.287 30.14C143.905 30.0467 142.701 29.7667 141.675 29.3C140.648 28.8333 139.864 28.2453 139.323 27.536C138.781 26.8267 138.389 26.1733 138.147 25.576C137.904 24.9787 137.755 24.3907 137.699 23.812C137.643 23.2147 137.671 22.4493 137.783 21.516C137.913 20.732 138.184 19.9573 138.595 19.192C139.024 18.4267 139.584 17.7453 140.275 17.148C140.984 16.532 141.833 16.0653 142.823 15.748C143.812 15.412 144.867 15.3093 145.987 15.44C147.069 15.5707 147.993 15.8693 148.759 16.336C149.524 16.784 150.177 17.3627 150.719 18.072C151.185 18.6693 151.465 19.1173 151.559 19.416C151.671 19.7147 151.764 19.9947 151.839 20.256C151.932 20.5173 152.007 20.7413 152.063 20.928C152.119 21.1147 152.165 21.3107 152.203 21.516C152.259 21.7027 152.296 21.9267 152.315 22.188C152.333 22.5427 152.268 22.8693 152.119 23.168C151.969 23.4667 151.745 23.7 151.447 23.868C151.204 23.9613 150.943 24.008 150.663 24.008L145.875 24.092C142.515 24.1107 140.835 24.148 140.835 24.204H140.751C140.993 25.156 141.497 25.9027 142.263 26.444C143.047 26.9853 144.111 27.3027 145.455 27.396C146.183 27.4333 146.789 27.396 147.275 27.284C147.816 27.1347 148.208 27.004 148.451 26.892C148.693 26.7613 148.992 26.5933 149.347 26.388C149.701 26.2573 150.056 26.276 150.411 26.444C150.765 26.612 151.008 26.8733 151.139 27.228C151.269 27.5827 151.251 27.928 151.083 28.264C150.933 28.6 150.691 28.8613 150.355 29.048C150.056 29.216 149.748 29.3653 149.431 29.496C149.113 29.608 148.647 29.748 148.031 29.916C147.415 30.084 146.5 30.1587 145.287 30.14ZM140.807 21.46C141.889 21.404 144.699 21.348 149.235 21.292C149.067 20.732 148.796 20.2 148.423 19.696C147.676 18.8373 146.752 18.3427 145.651 18.212C144.493 18.0627 143.476 18.3147 142.599 18.968C141.721 19.6027 141.124 20.4333 140.807 21.46ZM159.616 29.916C159.504 29.8787 159.271 29.8227 158.916 29.748C158.58 29.6733 158.282 29.5893 158.02 29.496C157.778 29.4027 157.488 29.272 157.152 29.104C156.835 28.9173 156.546 28.6747 156.284 28.376C156.023 28.0587 155.799 27.6853 155.612 27.256C155.407 26.752 155.276 25.7627 155.22 24.288C155.164 23.1493 155.155 21.684 155.192 19.892C155.192 19.556 155.202 18.996 155.22 18.212L154.996 18.24C154.604 18.2773 154.259 18.1747 153.96 17.932C153.662 17.6893 153.484 17.3813 153.428 17.008C153.391 16.616 153.494 16.2707 153.736 15.972C153.979 15.6733 154.287 15.496 154.66 15.44L155.304 15.384C155.323 14.3947 155.351 13.396 155.388 12.388C155.407 11.996 155.556 11.6693 155.836 11.408C156.116 11.1467 156.452 11.0253 156.844 11.044C157.236 11.0627 157.563 11.212 157.824 11.492C158.086 11.772 158.207 12.108 158.188 12.5L158.104 15.16L159.028 15.104C159.42 15.0853 159.756 15.1973 160.036 15.44C160.335 15.6827 160.494 16 160.512 16.392C160.55 16.784 160.447 17.1293 160.204 17.428C159.962 17.708 159.644 17.8667 159.252 17.904L158.02 17.96C158.002 18.856 157.992 19.5093 157.992 19.92C157.955 21.6747 157.964 23.1027 158.02 24.204C158.058 25.324 158.114 25.968 158.188 26.136C158.263 26.304 158.319 26.4253 158.356 26.5C158.394 26.556 158.459 26.6213 158.552 26.696C158.664 26.752 158.776 26.7893 158.888 26.808C159 26.8267 159.206 26.8827 159.504 26.976C159.822 27.0507 160.158 27.1533 160.512 27.284C160.867 27.396 161.128 27.6293 161.296 27.984C161.483 28.32 161.511 28.6747 161.38 29.048C161.268 29.4027 161.035 29.6733 160.68 29.86C160.344 30.028 159.99 30.0467 159.616 29.916Z" fill="#EEEEEE"/>
</svg>
